Coordinates
version=1
nRows=21
nColumns=28
inDegrees=yes

Units are S.I. units (second, meters, Newtons, ...)
Angles are in degrees.

endheader
time	pelvis_tilt	pelvis_list	pelvis_rotation	pelvis_tx	pelvis_ty	pelvis_tz	hip_flexion_r	hip_adduction_r	hip_rotation_r	knee_angle_r	ankle_angle_r	subtalar_angle_r	mtp_angle_r	hip_flexion_l	hip_adduction_l	hip_rotation_l	knee_angle_l	socket_flexion	socket_adduction	socket_rotation	socket_tx	socket_ty	socket_tz	foot_flex	lumbar_extension	lumbar_bending	lumbar_rotation
      0.00000000	      0.47376815	     -6.03711925	     -9.40545273	     -0.90925571	      0.99163225	      0.31955596	    -26.71499560	      6.89310646	      5.08817739	     -3.41795130	     12.70903953	     -0.60467571	      5.15813409	     27.75896774	     -9.25019093	     -5.01092410	     -9.79654171	     -4.68401676	      0.00000000	      0.00000000	      0.00000000	      0.00009461	      0.00000000	     -0.62165892	    -11.93282000	      3.55354087	     12.23609309
      0.00416667	      0.39559510	     -6.11847459	     -9.42962268	     -0.90376766	      0.99085925	      0.31928747	    -26.75056465	      6.93368188	      5.13780019	     -3.78743285	     12.59973998	     -0.61200502	      5.18181168	     27.54999220	     -9.25069628	     -4.88982433	     -9.69718055	     -4.65304617	      0.00000000	      0.00000000	      0.00000000	     -0.00039831	      0.00000000	     -0.94816598	    -11.85639602	      3.62081700	     12.29774855
      0.00833333	      0.31924879	     -6.21944272	     -9.48180326	     -0.89801771	      0.99010456	      0.31905135	    -26.74025491	      6.98364763	      5.15425940	     -4.27312950	     12.46180556	     -0.66100065	      5.20557302	     27.30032207	     -9.27936991	     -4.80251102	     -9.57280748	     -4.61903886	      0.00000000	      0.00000000	      0.00000000	     -0.00096915	      0.00000000	     -1.27915437	    -11.77569069	      3.70967554	     12.35665341
      0.01250000	      0.38952732	     -6.27707801	     -9.76268277	     -0.89185403	      0.98964084	      0.31915327	    -26.86022580	      6.84892040	      5.25862981	     -4.84185702	     12.16221520	     -0.64689458	      6.26124471	     26.48478444	     -9.33208543	     -4.96876147	     -8.52277212	     -4.02575438	      0.00000000	      0.00000000	      0.00000000	     -0.00194255	      0.00000000	     -1.56151855	    -11.82938906	      3.67199529	     12.77495236
      0.01666667	      0.30231630	     -6.35136710	     -9.78499563	     -0.88566865	      0.98884577	      0.31884994	    -26.86100918	      6.87438337	      5.27263807	     -5.31009991	     11.99148324	     -0.71209036	      6.26812930	     26.26509731	     -9.31756293	     -4.86939606	     -8.49139465	     -4.03325351	      0.00000000	      0.00000000	      0.00000000	     -0.00258527	      0.00000000	     -1.89650874	    -11.71005277	      3.73944598	     12.78412172
      0.02083333	      0.20817362	     -6.43383185	     -9.82754707	     -0.87938998	      0.98808046	      0.31861332	    -26.81343385	      6.91095202	      5.30727300	     -5.87048691	     11.78670257	     -0.78371984	      6.27355287	     26.02005493	     -9.32154627	     -4.72702720	     -8.40792378	     -4.03442042	      0.00000000	      0.00000000	      0.00000000	     -0.00324287	      0.00000000	     -2.27340883	    -11.60656323	      3.79458738	     12.80454480
      0.02500000	     -0.00809360	     -6.62143208	     -9.99433890	     -0.87292651	      0.98719789	      0.31847066	    -26.59542574	      7.01317779	      5.42688614	     -6.57542553	     11.55409748	     -0.91913842	      6.48362171	     25.72802628	     -9.49006069	     -4.59651218	     -7.93075334	     -3.74055808	      0.00000000	      0.00000000	      0.00000000	     -0.00423621	      0.00000000	     -2.54658857	    -11.36527949	      4.01373186	     13.01508682
      0.02916667	     -0.09543950	     -6.66975126	    -10.04514429	     -0.86646105	      0.98650133	      0.31821188	    -26.53356361	      7.00184621	      5.47346760	     -7.16079086	     11.28447765	     -1.01781637	      6.51472183	     25.46291183	     -9.45992124	     -4.49750610	     -7.84675617	     -3.69652352	      0.00000000	      0.00000000	      0.00000000	     -0.00500876	      0.00000000	     -2.94065670	    -11.24688352	      4.04463397	     13.04412598
      0.03333333	     -0.32486275	     -6.76008484	    -10.24505064	     -0.85970949	      0.98573867	      0.31820133	    -26.32153957	      7.00635176	      5.75563639	     -7.79197215	     10.90235290	     -1.28016140	      6.99953027	     25.09215151	     -9.54703736	     -4.43904908	     -7.18806918	     -3.29588453	      0.00000000	      0.00000000	      0.00000000	     -0.00600073	      0.00000000	     -3.22299734	    -10.95487207	      4.11380055	     13.31751608
      0.03750000	     -0.38983919	     -6.77432588	    -10.19232312	     -0.85275850	      0.98505937	      0.31788124	    -26.40588617	      6.99342366	      5.86440400	     -8.14980394	     10.78418385	     -1.28730613	      6.99646659	     24.84190426	     -9.44076223	     -4.32184097	     -7.24579347	     -3.32973431	      0.00000000	      0.00000000	      0.00000000	     -0.00686163	      0.00000000	     -3.34626859	    -10.76760571	      4.11241133	     13.30844358
      0.04166667	     -0.45469232	     -6.84588056	    -10.32148411	     -0.84640862	      0.98464882	      0.31768542	    -26.13594758	      6.97094567	      5.79521864	     -9.13413277	     10.22200200	     -1.52848425	      7.01686315	     24.50394810	     -9.46892226	     -4.16857952	     -7.08670364	     -3.24385799	      0.00000000	      0.00000000	      0.00000000	     -0.00770068	      0.00000000	     -3.85013223	    -10.75358686	      4.14833028	     13.29902256
      0.04583333	     -0.47693709	     -6.80737215	    -10.54019866	     -0.83956222	      0.98438650	      0.31783002	    -26.14836029	      6.80520153	      6.23977850	     -9.64004733	      8.98784947	     -2.32390768	      9.92052828	     23.81296842	     -9.41440864	     -4.24284351	     -6.19045615	     -2.66361100	      0.00000000	      0.00000000	      0.00000000	     -0.00867233	      0.00000000	     -4.10475524	    -10.66416380	      4.00176685	     13.60112604
      0.05000000	     -0.53481385	     -6.79112845	    -10.51666298	     -0.83291331	      0.98401592	      0.31754950	    -26.02246727	      6.76623847	      6.34140158	    -10.33962534	      8.66181934	     -2.36635304	      9.88673976	     23.56791980	     -9.30330105	     -4.03842527	     -6.23380888	     -2.63985816	      0.00000000	      0.00000000	      0.00000000	     -0.00945918	      0.00000000	     -4.39437321	    -10.56361858	      3.92816830	     13.55294563
      0.05416667	     -0.60151186	     -6.77831425	    -10.51563740	     -0.82628965	      0.98373120	      0.31727237	    -25.80869725	      6.72385736	      6.38330417	    -11.16513218	      8.23312001	     -2.47508907	      9.84510468	     23.31178936	     -9.20468479	     -3.88009441	     -6.23723852	     -2.58202056	      0.00000000	      0.00000000	      0.00000000	     -0.01025134	      0.00000000	     -4.66028592	    -10.45830468	      3.87228372	     13.50138353
      0.05833333	     -0.68402927	     -6.73994050	    -10.51266604	     -0.81960380	      0.98348032	      0.31703693	    -25.55974702	      6.66338378	      6.42967455	    -12.01977931	      7.76903605	     -2.60973400	      9.81272348	     23.06580247	     -9.08878732	     -3.73675686	     -6.22273280	     -2.49970757	      0.00000000	      0.00000000	      0.00000000	     -0.01104160	      0.00000000	     -4.88444000	    -10.31841541	      3.79505132	     13.45131078
      0.06250000	     -1.10069566	     -6.58977807	    -10.63173216	     -0.81251991	      0.98290018	      0.31705356	    -24.91404885	      6.52239744	      6.50001446	    -12.94228262	      7.07555379	     -3.03254547	     10.28758535	     23.01498365	     -8.95319895	     -3.71237694	     -5.84071667	     -2.16628694	      0.00000000	      0.00000000	      0.00000000	     -0.01185509	      0.00000000	     -5.08106892	     -9.69892707	      3.64994466	     13.47390981
      0.06666667	     -1.09739061	     -6.52347475	    -10.55513334	     -0.80599016	      0.98292919	      0.31675462	    -24.73672259	      6.46411449	      6.67176065	    -13.76920271	      6.63892538	     -3.09374872	     10.27025860	     22.74756579	     -8.78238433	     -3.50028707	     -5.94296276	     -2.11633872	      0.00000000	      0.00000000	      0.00000000	     -0.01251038	      0.00000000	     -5.24671326	     -9.66756634	      3.50459687	     13.41183992
      0.07083333	     -1.26512588	     -6.29042725	    -10.56279428	     -0.79915182	      0.98275332	      0.31656216	    -24.22405282	      6.20791179	      6.43112798	    -14.77899966	      5.11587036	     -3.63689103	     13.75309012	     22.60819723	     -8.49186962	     -3.51996861	     -5.93670728	     -1.98156195	      0.00000000	      0.00000000	      0.00000000	     -0.01313557	      0.00000000	     -5.40890970	     -9.35536609	      3.22968828	     13.29313414
      0.07500000	     -1.25635246	     -6.17412242	    -10.50704493	     -0.79260839	      0.98293109	      0.31629166	    -23.91494098	      6.08624540	      6.44441452	    -15.81485689	      4.52241431	     -3.78034120	     13.65261830	     22.33061659	     -8.28477662	     -3.41785072	     -6.02948879	     -1.89843469	      0.00000000	      0.00000000	      0.00000000	     -0.01376391	      0.00000000	     -5.55489191	     -9.31574727	      3.03710739	     13.18914533
      0.07916667	     -1.24980082	     -6.03059116	    -10.39005632	     -0.78613072	      0.98320332	      0.31602329	    -23.64873098	      5.99067502	      6.63413186	    -16.74190375	      4.02488965	     -3.84171860	     13.57990923	     22.08447111	     -8.04356913	     -3.20739072	     -6.14301359	     -1.79915515	      0.00000000	      0.00000000	      0.00000000	     -0.01422895	      0.00000000	     -5.66058085	     -9.27395844	      2.78193882	     13.09877210
      0.08333333	     -1.25430284	     -5.83230244	    -10.33809805	     -0.77959129	      0.98349625	      0.31572498	    -23.16929023	      5.78573535	      6.46795123	    -18.00419654	      3.23108766	     -4.08372734	     13.46332747	     21.82813089	     -7.75659750	     -3.23644576	     -6.22748439	     -1.69658991	      0.00000000	      0.00000000	      0.00000000	     -0.01470654	      0.00000000	     -5.76716065	     -9.21019979	      2.51106544	     12.94562888
